<svg id="Logo_Newts" xmlns="http://www.w3.org/2000/svg" viewBox="0 0 905.66 664.86"><defs><style>.cls-1{fill:#006837;}.cls-1,.cls-2,.cls-3,.cls-4{stroke:#000;stroke-miterlimit:10;}.cls-1,.cls-4{stroke-width:5px;}.cls-2,.cls-3{fill:none;}.cls-2{stroke-width:9px;}.cls-3{stroke-width:10px;}</style></defs><title>Atomundo</title><path class="cls-1" d="M849.46,524c0,134-85.2,248.19-204.41,291.23,5.54-4.39,31.59-29.5,45-121.23,15-103,58-86,117-128s-53-97-111-178,63.1-82.58,63.1-82.58A308.56,308.56,0,0,1,849.46,524Z" transform="translate(-86.2 -189.71)"/><path class="cls-1" d="M510,663c-59.35,31.37-84.59,113.35-90.89,137.56a1.06,1.06,0,0,1-2.09-.2,1,1,0,0,0-.25-.63L374,750c-43-50,47.64-138.36,5-181-81-81-28-103-7-122,44.64-40.38-106.91-58-86.71-91.76l0,0a147.2,147.2,0,0,1,10-14.22h0c20.19-25.86,60.15-65.63,107.31-92.84,27.5-15.86,57.44-27.45,87.34-29.53h0C582,212.22,609,312,558,344s-118-16-145,31,20,45,107,72S580,626,510,663Z" transform="translate(-86.2 -189.71)"/><circle class="cls-2" cx="454.3" cy="334.79" r="309"/><path class="cls-3" d="M395.66,797.51h0c-139.84,59.26-252.22,70.73-287.12,19.83C73.36,766.06,125.61,664.2,232.91,554.15q13.82-14.16,28.82-28.48c51-48.65,112-98.16,180.3-145,81.62-56,163.05-100.83,237-132.47,141.42-60.51,255.36-72.58,290.54-21.27,34.93,50.93-16.37,151.75-122.19,260.93" transform="translate(-86.2 -189.71)"/><path class="cls-3" d="M393.74,252.51C250.08,195,135.14,185.6,101.14,238c-33.89,52.23,21.12,152.9,131.46,260.33q14,13.62,29.13,27.35C313.94,573,376.19,621,445.66,666c32.19,20.89,64.31,40.11,95.93,57.55h0c51.78,28.56,102.22,52.34,149.43,70.85,140.54,55.07,252.44,63.41,285.9,11.84,33.57-51.74-20.1-151-128.39-257.31" transform="translate(-86.2 -189.71)"/><circle class="cls-4" cx="856.3" cy="468.79" r="25"/><circle class="cls-4" cx="60.3" cy="468.79" r="25"/></svg>