<svg id="Logo_Newts" xmlns="http://www.w3.org/2000/svg" viewBox="0 0 905.66 664.86"><defs><style>.cls-1{fill:none;stroke-width:10px;}.cls-1,.cls-2{stroke:#000;stroke-miterlimit:10;}.cls-2{stroke-width:5px;}</style></defs><title>Elipses Vetor</title><path class="cls-1" d="M395.66,797.51h0c-139.84,59.26-252.22,70.73-287.12,19.83C73.36,766.06,125.61,664.2,232.91,554.15q13.82-14.16,28.82-28.48c51-48.65,112-98.16,180.3-145,81.62-56,163.05-100.83,237-132.47,141.42-60.51,255.36-72.58,290.54-21.27,34.93,50.93-16.37,151.75-122.19,260.93" transform="translate(-86.2 -189.71)"/><path class="cls-1" d="M393.74,252.51C250.08,195,135.14,185.6,101.14,238c-33.89,52.23,21.12,152.9,131.46,260.33q14,13.62,29.13,27.35C313.94,573,376.19,621,445.66,666c32.19,20.89,64.31,40.11,95.93,57.55h0c51.78,28.56,102.22,52.34,149.43,70.85,140.54,55.07,252.44,63.41,285.9,11.84,33.57-51.74-20.1-151-128.39-257.31" transform="translate(-86.2 -189.71)"/><circle class="cls-2" cx="856.3" cy="468.79" r="25"/><circle class="cls-2" cx="60.3" cy="468.79" r="25"/></svg>