<svg id="Logo_Newts" xmlns="http://www.w3.org/2000/svg" viewBox="0 0 627 627"><defs><style>.cls-1{fill:#b0cfec;}.cls-2{fill:#006837;stroke-width:5px;}.cls-2,.cls-3{stroke:#000;stroke-miterlimit:10;}.cls-3{fill:none;stroke-width:9px;}</style></defs><title>World Vetor</title><circle class="cls-1" cx="313.5" cy="313.5" r="309"/><path class="cls-2" d="M849.46,524c0,134-85.2,248.19-204.41,291.23,5.54-4.39,31.59-29.5,45-121.23,15-103,58-86,117-128s-53-97-111-178,63.1-82.58,63.1-82.58A308.56,308.56,0,0,1,849.46,524Z" transform="translate(-227 -211)"/><path class="cls-2" d="M510,663c-59.35,31.37-84.59,113.35-90.89,137.56a1.06,1.06,0,0,1-2.09-.2,1,1,0,0,0-.25-.63L374,750c-43-50,47.64-138.36,5-181-81-81-28-103-7-122,44.64-40.38-106.91-58-86.71-91.76l0,0a147.2,147.2,0,0,1,10-14.22h0c20.19-25.86,60.15-65.63,107.31-92.84,27.5-15.86,57.44-27.45,87.34-29.53h0C582,212.22,609,312,558,344s-118-16-145,31,20,45,107,72S580,626,510,663Z" transform="translate(-227 -211)"/><circle class="cls-3" cx="313.5" cy="313.5" r="309"/></svg>